<svg width="246" height="246" viewBox="0 0 246 246" fill="none" xmlns="http://www.w3.org/2000/svg">
<rect x="41" y="101.5" width="5" height="27" fill="white"/>
<rect x="41" y="101.5" width="14" height="2" fill="white"/>
<rect x="41" y="111.5" width="13" height="2" fill="white"/>
<rect x="41" y="115.5" width="13" height="2" fill="white"/>
<rect x="43" y="126.5" width="13" height="2" fill="white"/>
<rect x="59" y="126.5" width="15" height="2" fill="white"/>
<rect x="59" y="101.5" width="5" height="25" fill="white"/>
<rect x="149" y="101.5" width="5" height="27" fill="white"/>
<rect x="149" y="94.5" width="7" height="2" fill="white"/>
<rect x="77" y="101.5" width="5" height="27" fill="white"/>
<rect x="77" y="101.5" width="15" height="2" fill="white"/>
<rect x="77" y="111.5" width="13" height="2" fill="white"/>
<rect x="77" y="115.5" width="13" height="2" fill="white"/>
<path fill-rule="evenodd" clip-rule="evenodd" d="M108 129.5C115.732 129.5 122 123.008 122 115C122 106.992 115.732 100.5 108 100.5C100.268 100.5 94 106.992 94 115C94 123.008 100.268 129.5 108 129.5ZM107.5 127.5C112.194 127.5 116 121.904 116 115C116 108.096 112.194 102.5 107.5 102.5C102.806 102.5 99 108.096 99 115C99 121.904 102.806 127.5 107.5 127.5Z" fill="white"/>
<rect x="127" y="101.5" width="3" height="27" fill="white"/>
<rect x="90" y="142.5" width="63" height="3" fill="white"/>
<path d="M131.5 117.5H130V114.5H136V116.5L146.5 128.5H140.5L131.5 117.5Z" fill="white"/>
<path fill-rule="evenodd" clip-rule="evenodd" d="M130 101.5H136C139.866 101.5 143 104.634 143 108.5C143 112.366 139.866 115.5 136 115.5H130V114.5H133.25C136.426 114.5 139 111.926 139 108.75C139 105.574 136.426 103 133.25 103H130V101.5Z" fill="white"/>
<path d="M47.5455 141.594C47.4858 141.386 47.402 141.203 47.294 141.044C47.1861 140.882 47.054 140.746 46.8977 140.635C46.7443 140.521 46.5682 140.435 46.3693 140.375C46.1733 140.315 45.956 140.286 45.7173 140.286C45.2713 140.286 44.8793 140.396 44.5412 140.618C44.206 140.839 43.9446 141.162 43.7571 141.585C43.5696 142.006 43.4759 142.52 43.4759 143.128C43.4759 143.736 43.5682 144.253 43.7528 144.679C43.9375 145.105 44.1989 145.43 44.5369 145.655C44.875 145.876 45.2741 145.987 45.7344 145.987C46.152 145.987 46.5085 145.913 46.804 145.766C47.1023 145.615 47.3295 145.403 47.4858 145.131C47.6449 144.858 47.7244 144.536 47.7244 144.163L48.0994 144.219H45.8494V142.83H49.5014V143.929C49.5014 144.696 49.3395 145.355 49.0156 145.906C48.6918 146.455 48.2457 146.878 47.6776 147.176C47.1094 147.472 46.4588 147.619 45.7259 147.619C44.9077 147.619 44.1889 147.439 43.5696 147.078C42.9503 146.714 42.4673 146.199 42.1207 145.531C41.777 144.861 41.6051 144.065 41.6051 143.145C41.6051 142.437 41.7074 141.807 41.9119 141.253C42.1193 140.696 42.4091 140.224 42.7812 139.838C43.1534 139.452 43.5866 139.158 44.081 138.956C44.5753 138.754 45.1108 138.653 45.6875 138.653C46.1818 138.653 46.642 138.726 47.0682 138.871C47.4943 139.013 47.8722 139.214 48.2017 139.476C48.5341 139.737 48.8054 140.048 49.0156 140.409C49.2259 140.767 49.3608 141.162 49.4205 141.594H47.5455ZM50.8874 147.5V138.773H54.3306C54.9897 138.773 55.5522 138.891 56.0181 139.126C56.4869 139.359 56.8434 139.69 57.0877 140.119C57.3349 140.545 57.4585 141.047 57.4585 141.624C57.4585 142.203 57.3335 142.702 57.0835 143.119C56.8335 143.534 56.4712 143.852 55.9968 144.074C55.5252 144.295 54.9542 144.406 54.2837 144.406H51.9783V142.923H53.9854C54.3377 142.923 54.6303 142.875 54.8633 142.778C55.0962 142.682 55.2695 142.537 55.3832 142.344C55.4996 142.151 55.5579 141.911 55.5579 141.624C55.5579 141.334 55.4996 141.089 55.3832 140.891C55.2695 140.692 55.0948 140.541 54.859 140.439C54.6261 140.334 54.332 140.281 53.9769 140.281H52.7326V147.5H50.8874ZM55.6005 143.528L57.7695 147.5H55.7326L53.6104 143.528H55.6005ZM66.7823 143.136C66.7823 144.088 66.6019 144.898 66.2411 145.565C65.8832 146.233 65.3945 146.743 64.7752 147.095C64.1587 147.445 63.4656 147.619 62.6957 147.619C61.9201 147.619 61.2241 147.443 60.6076 147.091C59.9911 146.739 59.5039 146.229 59.146 145.561C58.788 144.893 58.609 144.085 58.609 143.136C58.609 142.185 58.788 141.375 59.146 140.707C59.5039 140.04 59.9911 139.531 60.6076 139.182C61.2241 138.83 61.9201 138.653 62.6957 138.653C63.4656 138.653 64.1587 138.83 64.7752 139.182C65.3945 139.531 65.8832 140.04 66.2411 140.707C66.6019 141.375 66.7823 142.185 66.7823 143.136ZM64.9116 143.136C64.9116 142.52 64.8192 142 64.6346 141.577C64.4528 141.153 64.1957 140.832 63.8633 140.614C63.5309 140.395 63.1417 140.286 62.6957 140.286C62.2496 140.286 61.8604 140.395 61.5281 140.614C61.1957 140.832 60.9371 141.153 60.7525 141.577C60.5707 142 60.4798 142.52 60.4798 143.136C60.4798 143.753 60.5707 144.273 60.7525 144.696C60.9371 145.119 61.1957 145.44 61.5281 145.659C61.8604 145.878 62.2496 145.987 62.6957 145.987C63.1417 145.987 63.5309 145.878 63.8633 145.659C64.1957 145.44 64.4528 145.119 64.6346 144.696C64.8192 144.273 64.9116 143.753 64.9116 143.136ZM73.5398 138.773H75.3849V144.44C75.3849 145.077 75.233 145.634 74.929 146.111C74.6278 146.588 74.206 146.96 73.6634 147.227C73.1207 147.491 72.4886 147.624 71.767 147.624C71.0426 147.624 70.4091 147.491 69.8665 147.227C69.3239 146.96 68.902 146.588 68.6009 146.111C68.2997 145.634 68.1491 145.077 68.1491 144.44V138.773H69.9943V144.283C69.9943 144.615 70.0668 144.911 70.2116 145.169C70.3594 145.428 70.5668 145.631 70.8338 145.778C71.1009 145.926 71.4119 146 71.767 146C72.125 146 72.4361 145.926 72.7003 145.778C72.9673 145.631 73.1733 145.428 73.3182 145.169C73.4659 144.911 73.5398 144.615 73.5398 144.283V138.773ZM76.9031 147.5V138.773H80.3462C81.0082 138.773 81.5721 138.899 82.038 139.152C82.5039 139.402 82.859 139.75 83.1033 140.196C83.3505 140.639 83.4741 141.151 83.4741 141.73C83.4741 142.31 83.3491 142.821 83.0991 143.264C82.8491 143.707 82.4869 144.053 82.0124 144.3C81.5408 144.547 80.9698 144.67 80.2994 144.67H78.1048V143.192H80.0011C80.3562 143.192 80.6488 143.131 80.8789 143.009C81.1119 142.884 81.2852 142.712 81.3988 142.493C81.5153 142.271 81.5735 142.017 81.5735 141.73C81.5735 141.44 81.5153 141.187 81.3988 140.972C81.2852 140.753 81.1119 140.584 80.8789 140.464C80.646 140.342 80.3505 140.281 79.9925 140.281H78.7482V147.5H76.9031Z" fill="#FFFCFC"/>
<path d="M204.5 134.5H170C170 132.291 171.79 130.503 173.999 130.443C176.237 130.382 178.728 130.257 179.5 130C180.869 129.544 180.779 127.122 180.626 125.824C180.564 125.306 180.722 124.778 181.09 124.41C181.353 124.147 181.5 123.792 181.5 123.42V121C181.5 121 180.774 120.48 180.5 120C179.634 118.484 181.938 117.745 182 116C182.053 114.497 181.021 113.154 180.064 112.24C179.188 111.403 178.623 110.222 178.812 109.025C179.549 104.358 177.777 99.6475 174.147 96.6228L171 94H204.5V96H182.5V98.5H204.5V100H185.5V103H194.5V105H184.5V107H194.5V109H186.5V111.5H204.5V113H190V115H204.5V117.5H188V120H194V121.5H186.5V124H194V126H187.5V128.5H204.5V130H186V132.5H204.5V134.5Z" fill="white"/>
</svg>
