<svg width="46" height="54" viewBox="0 0 46 54" fill="none" xmlns="http://www.w3.org/2000/svg">
<path d="M45.7705 53.7306H0C0 50.7998 2.37536 48.4273 5.30511 48.3479C8.27409 48.2675 11.5798 48.1018 12.6035 47.7605C14.42 47.155 14.3002 43.9425 14.0968 42.2202C14.0156 41.5336 14.2242 40.8331 14.7131 40.3442C15.0613 39.996 15.2568 39.5238 15.2568 39.0315V35.8204C15.2568 35.8204 14.2937 35.1299 13.9302 34.4937C12.7806 32.482 15.8385 31.5026 15.9202 29.187C15.9905 27.1928 14.6207 25.4118 13.3512 24.1986C12.1894 23.0884 11.4398 21.521 11.6905 19.9337C12.6681 13.742 10.3177 7.4925 5.5022 3.4796L1.32668 0H45.7705V2.65336H16.5835V5.97007H45.7705V7.96009H20.5636V11.9401H32.5037V14.5935H19.2369V17.2469H32.5037V19.9002H21.8902V23.2169H45.7705V25.2069H26.5336V27.8603H45.7705V31.177H23.8803V34.4937H31.8404V36.4837H21.8902V39.8004H31.8404V42.4538H23.2169V45.7705H45.7705V47.7605H21.2269V51.0772H45.7705V53.7306Z" fill="black"/>
</svg>
