<svg width="24" height="24" viewBox="0 0 24 24" fill="none" xmlns="http://www.w3.org/2000/svg">
<path fill-rule="evenodd" clip-rule="evenodd" d="M10.1185 6.82547C10.868 5.02674 13.432 5.07292 14.1163 6.89748L15.9541 11.7984L17.5459 11.2015L15.708 6.30057C14.4828 3.03334 9.89138 2.95064 8.5493 6.17162L6.46538 11.173L8.03461 11.8269L10.1185 6.82547ZM1.69037 9.14997H2.74999H5.74999V10.85H3.80962L5.43184 18.15H18.5681L20.1904 10.85H18.25V9.14997H21.25H22.3096L22.0798 10.1844L20.0798 19.1844L19.9318 19.85H19.25H4.74999H4.06815L3.92023 19.1844L1.92023 10.1844L1.69037 9.14997ZM14 10.85H9.99999V9.14997H14V10.85Z" fill="#9B9B9B"/>
</svg>
