<svg width="16" height="14" viewBox="0 0 16 14" fill="none" xmlns="http://www.w3.org/2000/svg">
<path d="M12.7115 13.3782C11.9308 13.3782 11.2708 13.1086 10.7317 12.5695C10.1926 12.0304 9.92308 11.3705 9.92308 10.5897C9.92308 9.80896 10.1926 9.14903 10.7317 8.60993C11.2708 8.07083 11.9308 7.80128 12.7115 7.80128C13.4923 7.80128 14.1522 8.07083 14.6913 8.60993C15.2304 9.14903 15.5 9.80896 15.5 10.5897C15.5 11.3705 15.2304 12.0304 14.6913 12.5695C14.1522 13.1086 13.4923 13.3782 12.7115 13.3782ZM12.7107 12.1282C13.1354 12.1282 13.4981 11.9781 13.7989 11.6779C14.0996 11.3777 14.25 11.0152 14.25 10.5905C14.25 10.1659 14.0999 9.80314 13.7997 9.50239C13.4995 9.20164 13.137 9.05126 12.7123 9.05126C12.2876 9.05126 11.9249 9.20137 11.6242 9.50158C11.3234 9.80178 11.173 10.1642 11.173 10.5889C11.173 11.0136 11.3231 11.3763 11.6234 11.6771C11.9236 11.9778 12.286 12.1282 12.7107 12.1282ZM1.75 11.2147V9.96474H8.09615V11.2147H1.75ZM3.28844 6.1987C2.50769 6.1987 1.84776 5.92915 1.30865 5.39006C0.769548 4.85096 0.5 4.19103 0.5 3.41026C0.5 2.6295 0.769548 1.96957 1.30865 1.43047C1.84776 0.891375 2.50769 0.621826 3.28844 0.621826C4.0692 0.621826 4.72913 0.891375 5.26823 1.43047C5.80733 1.96957 6.07688 2.6295 6.07688 3.41026C6.07688 4.19103 5.80733 4.85096 5.26823 5.39006C4.72913 5.92915 4.0692 6.1987 3.28844 6.1987ZM3.28765 4.94872C3.71233 4.94872 4.07504 4.79862 4.37579 4.49841C4.67654 4.1982 4.82692 3.83576 4.82692 3.41108C4.82692 2.98638 4.67681 2.62366 4.3766 2.32291C4.0764 2.02216 3.71394 1.87178 3.28925 1.87178C2.86457 1.87178 2.50185 2.02189 2.2011 2.32212C1.90035 2.62233 1.74998 2.98477 1.74998 3.40945C1.74998 3.83413 1.90008 4.19685 2.20029 4.4976C2.5005 4.79835 2.86295 4.94872 3.28765 4.94872ZM7.90381 4.03524V2.78528H14.25V4.03524H7.90381Z" fill="black"/>
</svg>
